# xmcd
#
# Track frame offsets:
#	150
#	12970
#	29700
#
# Disc length: 563 seconds
#
# Revision: 10
# Processed by: cddbd v1.5.2PL0 Copyright (c) Steve Scherf et al.
# Submitted via: audiograbber 1.83.01
#
DISCID=1e023103
DTITLE=Tom Waits - Bad As Me CD2
DYEAR=2011
DGENRE=Rock
TTITLE0=She stole the blush
TTITLE1=Tell me
TTITLE2=After you die
EXTD=YEAR: 2011
EXTT0=
EXTT1=
EXTT2=
PLAYORDER=
